<?xml version="1.0" encoding="UTF-8" standalone="no"?>
<!DOCTYPE svg PUBLIC "-//W3C//DTD SVG 1.1//EN"
 "http://www.w3.org/Graphics/SVG/1.1/DTD/svg11.dtd">
<!-- Generated by graphviz version 2.36.0 (20140111.2315)
 -->
<!-- Title: G Pages: 1 -->
<svg width="112pt" height="312pt"
 viewBox="0.00 0.00 112.00 312.00" xmlns="http://www.w3.org/2000/svg" xmlns:xlink="http://www.w3.org/1999/xlink">
<g id="graph0" class="graph" transform="scale(1 1) rotate(0) translate(4 308)">
<title>G</title>
<polygon fill="white" stroke="none" points="-4,4 -4,-308 108,-308 108,4 -4,4"/>
<g id="clust1" class="cluster"><title>cluster_Global</title>
<path fill="none" stroke="gray" d="M20,-8C20,-8 84,-8 84,-8 90,-8 96,-14 96,-20 96,-20 96,-284 96,-284 96,-290 90,-296 84,-296 84,-296 20,-296 20,-296 14,-296 8,-290 8,-284 8,-284 8,-20 8,-20 8,-14 14,-8 20,-8"/>
<text text-anchor="middle" x="52" y="-283.2" font-family="Times,serif" font-size="11.00" fill="gray">Global</text>
</g>
<!-- \\Patho -->
<g id="node1" class="node"><title>\\Patho</title>
<polygon fill="none" stroke="black" points="79,-268 25,-268 25,-232 79,-232 79,-268"/>
<text text-anchor="middle" x="52" y="-247.2" font-family="Courier,monospace" font-size="11.00">Patho</text>
</g>
<!-- \\User -->
<g id="node2" class="node"><title>\\User</title>
<polygon fill="none" stroke="black" points="79,-214 25,-214 25,-178 79,-178 79,-214"/>
<text text-anchor="middle" x="52" y="-193.2" font-family="Courier,monospace" font-size="11.00">User</text>
</g>
<!-- \\RssItem -->
<g id="node3" class="node"><title>\\RssItem</title>
<polygon fill="none" stroke="black" points="84,-160 20,-160 20,-124 84,-124 84,-160"/>
<text text-anchor="middle" x="52" y="-139.2" font-family="Courier,monospace" font-size="11.00">RssItem</text>
</g>
<!-- \\Symptome -->
<g id="node4" class="node"><title>\\Symptome</title>
<polygon fill="none" stroke="black" points="87.5,-106 16.5,-106 16.5,-70 87.5,-70 87.5,-106"/>
<text text-anchor="middle" x="52" y="-85.2" font-family="Courier,monospace" font-size="11.00">Symptome</text>
</g>
<!-- \\KeyWords -->
<g id="node5" class="node"><title>\\KeyWords</title>
<polygon fill="none" stroke="black" points="87.5,-52 16.5,-52 16.5,-16 87.5,-16 87.5,-52"/>
<text text-anchor="middle" x="52" y="-31.2" font-family="Courier,monospace" font-size="11.00">KeyWords</text>
</g>
</g>
</svg>
