<?xml version="1.0" encoding="UTF-8" standalone="no"?>
<!DOCTYPE svg PUBLIC "-//W3C//DTD SVG 1.1//EN"
 "http://www.w3.org/Graphics/SVG/1.1/DTD/svg11.dtd">
<!-- Generated by graphviz version 2.36.0 (20140111.2315)
 -->
<!-- Title: G Pages: 1 -->
<svg width="304pt" height="258pt"
 viewBox="0.00 0.00 304.00 258.00" xmlns="http://www.w3.org/2000/svg" xmlns:xlink="http://www.w3.org/1999/xlink">
<g id="graph0" class="graph" transform="scale(1 1) rotate(0) translate(4 254)">
<title>G</title>
<polygon fill="white" stroke="none" points="-4,4 -4,-254 300,-254 300,4 -4,4"/>
<g id="clust1" class="cluster"><title>cluster_Global</title>
<path fill="none" stroke="gray" d="M132,-8C132,-8 276,-8 276,-8 282,-8 288,-14 288,-20 288,-20 288,-230 288,-230 288,-236 282,-242 276,-242 276,-242 132,-242 132,-242 126,-242 120,-236 120,-230 120,-230 120,-20 120,-20 120,-14 126,-8 132,-8"/>
<text text-anchor="middle" x="204" y="-229.2" font-family="Times,serif" font-size="11.00" fill="gray">Global</text>
</g>
<!-- \\PathoController -->
<g id="node1" class="node"><title>\\PathoController</title>
<polygon fill="none" stroke="black" points="263,-214 145,-214 145,-178 263,-178 263,-214"/>
<text text-anchor="middle" x="204" y="-193.2" font-family="Courier,monospace" font-size="11.00">PathoController</text>
</g>
<!-- \\Bdd -->
<g id="node5" class="node"><title>\\Bdd</title>
<ellipse fill="none" stroke="black" cx="28" cy="-115" rx="27.8951" ry="18"/>
<text text-anchor="middle" x="28" y="-111.3" font-family="Times,serif" font-size="14.00" fill="gray">\Bdd</text>
</g>
<!-- \\PathoController&#45;&gt;\\Bdd -->
<g id="edge1" class="edge"><title>\\PathoController&#45;&gt;\\Bdd</title>
<path fill="none" stroke="black" d="M144.776,-178.876C136.348,-175.876 127.869,-172.562 120,-169 97.7669,-158.937 74.1038,-144.777 56.4818,-133.481"/>
<polygon fill="none" stroke="black" points="58.1483,-130.39 47.8569,-127.872 54.3321,-136.258 58.1483,-130.39"/>
</g>
<!-- \\SymptPathoController -->
<g id="node2" class="node"><title>\\SymptPathoController</title>
<polygon fill="none" stroke="black" points="280,-160 128,-160 128,-124 280,-124 280,-160"/>
<text text-anchor="middle" x="204" y="-139.2" font-family="Courier,monospace" font-size="11.00">SymptPathoController</text>
</g>
<!-- \\SymptPathoController&#45;&gt;\\Bdd -->
<g id="edge2" class="edge"><title>\\SymptPathoController&#45;&gt;\\Bdd</title>
<path fill="none" stroke="black" d="M127.946,-130.354C106.162,-126.973 83.3598,-123.435 65.1423,-120.608"/>
<polygon fill="none" stroke="black" points="65.6778,-117.15 55.2593,-119.075 64.6044,-124.067 65.6778,-117.15"/>
</g>
<!-- \\UserController -->
<g id="node3" class="node"><title>\\UserController</title>
<polygon fill="none" stroke="black" points="259.5,-106 148.5,-106 148.5,-70 259.5,-70 259.5,-106"/>
<text text-anchor="middle" x="204" y="-85.2" font-family="Courier,monospace" font-size="11.00">UserController</text>
</g>
<!-- \\UserController&#45;&gt;\\Bdd -->
<g id="edge3" class="edge"><title>\\UserController&#45;&gt;\\Bdd</title>
<path fill="none" stroke="black" d="M148.423,-96.4689C121.509,-100.645 89.7652,-105.571 65.7725,-109.294"/>
<polygon fill="none" stroke="black" points="65.0161,-105.869 55.6711,-110.861 66.0896,-112.787 65.0161,-105.869"/>
</g>
<!-- \\SymptomeController -->
<g id="node4" class="node"><title>\\SymptomeController</title>
<polygon fill="none" stroke="black" points="273,-52 135,-52 135,-16 273,-16 273,-52"/>
<text text-anchor="middle" x="204" y="-31.2" font-family="Courier,monospace" font-size="11.00">SymptomeController</text>
</g>
<!-- \\SymptomeController&#45;&gt;\\Bdd -->
<g id="edge4" class="edge"><title>\\SymptomeController&#45;&gt;\\Bdd</title>
<path fill="none" stroke="black" d="M142.114,-52.0819C134.57,-54.8248 127.04,-57.8134 120,-61 97.7669,-71.0632 74.1038,-85.2234 56.4818,-96.5188"/>
<polygon fill="none" stroke="black" points="54.3321,-93.7418 47.8569,-102.128 58.1483,-99.6101 54.3321,-93.7418"/>
</g>
</g>
</svg>
